# xmcd
#
# Track frame offsets: 
#        150
#        22795
#        61760
#        78613
#        125978
#        163095
#        175182
#        196503
#        224895
#
# Disc length: 3657 seconds
#
# Revision: 0
# Processed by: cddbd v1.5.1PL2 Copyright (c) Steve Scherf et al.
# Submitted via: ExactAudioCopy v0.95b3
#
DISCID=7a0e4709
DTITLE=Wooden Wand and the Vanishing Voice - Buck Dharma
DYEAR=2005
DGENRE=Folk/Rock
TTITLE0=Hideous Whisker and His Woman
TTITLE1=Rot On
TTITLE2=Risen From The Ashes
TTITLE3=Satya Sai Scupetty Plays 'Reverse Jam Band'
TTITLE4=Owl Fowl
TTITLE5=Steven The Harvester Presides O'er The Din Of The Cups
TTITLE6=I Am The One I Am and He Is The Caretaker Of My Heart
TTITLE7=Spear Of Destiny
TTITLE8=Wicked World
EXTD=
EXTT0=
EXTT1=
EXTT2=
EXTT3=
EXTT4=
EXTT5=
EXTT6=
EXTT7=
EXTT8=
PLAYORDER=
